<svg id="Calque_1" data-name="Calque 1" xmlns="http://www.w3.org/2000/svg" viewBox="0 0 437.1997 612.62828"><defs><style>.cls-1,.cls-3,.cls-6,.cls-7,.cls-8{fill:none;}.cls-1,.cls-2{stroke:#fff;}.cls-1,.cls-2,.cls-3,.cls-6,.cls-7{stroke-miterlimit:10;}.cls-1{stroke-width:11px;}.cls-1,.cls-3{fill-rule:evenodd;}.cls-2{fill:#feeb15;}.cls-2,.cls-6{stroke-width:2px;}.cls-3,.cls-6,.cls-7,.cls-8{stroke:#1f2937;}.cls-3{stroke-width:7px;}.cls-4,.cls-9{fill:#1f2937;}.cls-5{fill:#fff;}.cls-8{stroke-linecap:round;stroke-linejoin:round;}.cls-9{font-size:60px;font-family:Poppins-Medium, Poppins;font-weight:500;}</style></defs><path class="cls-1" d="M456.60116,175.55387a62.7699,62.7699,0,0,1,41.11946-10.58419" transform="translate(-274.61061 -159.19681)"/><path class="cls-1" d="M399.49644,302.63164c1.91086-48.01917,22.038-103.95173,57.10472-127.07777" transform="translate(-274.61061 -159.19681)"/><path class="cls-1" d="M588.244,302.757c-2.75741-62.5948-35.31359-138.59192-93.41965-137.90121" transform="translate(-274.61061 -159.19681)"/><rect class="cls-2" x="1" y="122.18585" width="435.1997" height="489.44243"/><path class="cls-3" d="M456.44867,175.87834a62.76987,62.76987,0,0,1,41.11945-10.58419" transform="translate(-274.61061 -159.19681)"/><path class="cls-3" d="M399.344,302.95611c1.91085-48.01918,22.038-103.95174,57.10472-127.07777" transform="translate(-274.61061 -159.19681)"/><path class="cls-3" d="M588.09149,303.08143c-2.75742-62.59479-35.3136-138.59191-93.41965-137.90121" transform="translate(-274.61061 -159.19681)"/><ellipse class="cls-4" cx="124.73334" cy="143.7593" rx="3.5" ry="4.26248"/><ellipse class="cls-4" cx="313.52769" cy="143.88114" rx="3.5" ry="4.26248"/><path class="cls-5" d="M578.46587,566.07082,552.10638,579l14.87994-.43522c-9.8685,10.2539-48.91119,47.29535-69.5885,14.94722V472.49275h37.38679c1.893,3.58174,6.51949,5.49609,11.16453,2.70448a4.96988,4.96988,0,0,0,1.68163-1.68252c3.58626-5.92932-.59373-12.061-6.20574-12.061a7.509,7.509,0,0,0-6.64057,4.04H497.39782V423.0424a14.58612,14.58612,0,1,0-6.99925,0v42.45125H453.01193c-1.89274-3.58129-6.51834-5.49561-11.16275-2.70551a4.97734,4.97734,0,0,0-1.68624,1.68762c-3.58147,5.92832.59778,12.057,6.20859,12.057a7.50873,7.50873,0,0,0,6.6404-4.04h37.38664v121.139c-20.69906,32.13181-59.71685-4.82968-69.5861-15.06843l15.379,1.458-26.861-13.95046,3.3716,29.78024,4.33874-14.70626c33.31379,45.24534,76.85733,52.51477,76.85733,52.51477s43.54368-7.26943,76.85733-52.51492l3.81894,15.21705ZM486.45351,410.38528a7.5918,7.5918,0,1,1,5.958,5.958A7.60208,7.60208,0,0,1,486.45351,410.38528Z" transform="translate(-274.61061 -159.19681)"/><line class="cls-6" x1="198.85748" y1="249.25" x2="158.85748" y2="249.25"/><circle class="cls-7" cx="158.85748" cy="249.25" r="0.5"/><circle class="cls-7" cx="198.85748" cy="249.25" r="0.5"/><line class="cls-6" x1="279.94258" y1="249.25" x2="239.94258" y2="249.25"/><circle class="cls-7" cx="239.94258" cy="249.25" r="0.5"/><circle class="cls-7" cx="279.94258" cy="249.25" r="0.5"/><line class="cls-6" x1="219.53833" y1="228.86702" x2="219.53832" y2="188.86702"/><circle class="cls-7" cx="219.53832" cy="188.86702" r="0.5"/><circle class="cls-7" cx="219.53833" cy="228.86702" r="0.5"/><line class="cls-6" x1="250.73605" y1="218.56292" x2="233.48954" y2="235.80942"/><ellipse class="cls-7" cx="508.10015" cy="395.00623" rx="0.30488" ry="0.5" transform="translate(-405.10311 315.7789) rotate(-45)"/><ellipse class="cls-7" cx="525.34666" cy="377.75973" rx="0.30488" ry="0.5" transform="translate(-387.8566 322.92264) rotate(-45)"/><line class="cls-6" x1="205.16158" y1="263.60547" x2="187.91507" y2="280.85198"/><ellipse class="cls-7" cx="462.52568" cy="440.04879" rx="0.30488" ry="0.5" transform="translate(-450.30145 296.74554) rotate(-45)"/><ellipse class="cls-7" cx="479.77219" cy="422.80228" rx="0.30488" ry="0.5" transform="translate(-433.05495 303.88928) rotate(-45)"/><line class="cls-6" x1="232.93635" y1="263.60547" x2="250.18286" y2="280.85198"/><ellipse class="cls-7" cx="524.79347" cy="440.04879" rx="0.5" ry="0.30488" transform="translate(-432.06364 340.77552) rotate(-45)"/><ellipse class="cls-7" cx="507.54696" cy="422.80228" rx="0.5" ry="0.30488" transform="translate(-424.9199 323.52901) rotate(-45)"/><line class="cls-6" x1="188.93635" y1="218.13738" x2="206.18286" y2="235.38389"/><ellipse class="cls-7" cx="480.79347" cy="394.5807" rx="0.5" ry="0.30488" transform="translate(-412.80015 296.34552) rotate(-45)"/><ellipse class="cls-7" cx="463.54696" cy="377.33419" rx="0.5" ry="0.30488" transform="translate(-405.65641 279.09902) rotate(-45)"/><path class="cls-8" d="M464.23112,541.7234c-4.66145,0-4.66145-5.01107-9.32289-5.01107-4.66014,0-4.66014,5.01107-9.32029,5.01107-4.66063,0-4.66063-5.01107-9.32142-5.01107-4.66192,0-4.66192,5.01107-9.32386,5.01107-4.66941,0-4.66941-5.01107-9.33882-5.01107s-4.66941,5.01107-9.339,5.01107" transform="translate(-274.61061 -159.19681)"/><path class="cls-8" d="M463.994,531.94537c-4.66145,0-4.66145-5.01108-9.32289-5.01108-4.66014,0-4.66014,5.01108-9.32029,5.01108-4.66063,0-4.66063-5.01108-9.32142-5.01108-4.66192,0-4.66192,5.01108-9.32386,5.01108-4.66941,0-4.66941-5.01108-9.33882-5.01108s-4.66941,5.01108-9.339,5.01108" transform="translate(-274.61061 -159.19681)"/><path class="cls-8" d="M578.99975,541.45839c-4.66145,0-4.66145-5.01108-9.32289-5.01108-4.66014,0-4.66014,5.01108-9.32029,5.01108-4.66063,0-4.66063-5.01108-9.32142-5.01108-4.66192,0-4.66192,5.01108-9.32386,5.01108-4.66941,0-4.66941-5.01108-9.33882-5.01108s-4.66941,5.01108-9.339,5.01108" transform="translate(-274.61061 -159.19681)"/><path class="cls-8" d="M578.76267,531.68035c-4.66145,0-4.66145-5.01108-9.32289-5.01108-4.66015,0-4.66015,5.01108-9.32029,5.01108-4.66063,0-4.66063-5.01108-9.32142-5.01108-4.66192,0-4.66192,5.01108-9.32387,5.01108-4.6694,0-4.6694-5.01108-9.33881-5.01108s-4.66941,5.01108-9.339,5.01108" transform="translate(-274.61061 -159.19681)"/><text class="cls-9" transform="translate(22.87882 552.67526)">ClickNToulon</text></svg>