<svg xmlns="http://www.w3.org/2000/svg" xmlns:xlink="http://www.w3.org/1999/xlink" width="356" height="88.70126778579271" viewBox="0 0 356 88.70126778579271">
    <g transform="matrix(0.7808210821692185,0,0,0.7808210821692185,0,-5.856158116269139)" fill="#2563eb">
        <path d="M71.9,74.2c0.1,0,0.2,0.1,0.3,0.1c0.4,0,0.8-0.3,1-0.7l2.5-7c0.2-0.5-0.1-1.1-0.6-1.3c-0.5-0.2-1.1,0.1-1.3,0.6l-2.5,7  C71.1,73.5,71.4,74,71.9,74.2z"/>
        <path d="M69.5,59.1l-6.6,3.1c-0.5,0.2-0.7,0.9-0.5,1.4c0.2,0.4,0.5,0.6,0.9,0.6c0.1,0,0.3,0,0.4-0.1l6.6-3.1  c0.5-0.2,0.7-0.9,0.5-1.4C70.6,59.1,70,58.9,69.5,59.1z"/>
        <path d="M71.8,52.5c0.2-0.5-0.1-1.1-0.6-1.3l-6.9-2.5c-0.5-0.2-1.1,0.1-1.3,0.6c-0.2,0.5,0.1,1.1,0.6,1.3l6.9,2.5  c0.1,0,0.2,0.1,0.4,0.1C71.3,53.2,71.6,52.9,71.8,52.5z"/>
        <path d="M77,48.3c0.1,0,0.3,0,0.4-0.1c0.5-0.2,0.7-0.9,0.5-1.4l-3.1-6.7c-0.2-0.5-0.9-0.7-1.4-0.5C73,39.8,72.8,40.5,73,41l3.1,6.7  C76.3,48,76.6,48.3,77,48.3z"/>
        <path d="M84.9,49.2c0.4,0,0.8-0.3,1-0.7l2.5-7c0.2-0.5-0.1-1.1-0.6-1.3c-0.5-0.2-1.1,0.1-1.3,0.6l-2.5,7c-0.2,0.5,0.1,1.1,0.6,1.3  C84.6,49.2,84.7,49.2,84.9,49.2z"/>
        <path d="M89.7,55.5c0.1,0,0.3,0,0.4-0.1l6.6-3.1c0.5-0.2,0.7-0.9,0.5-1.4c-0.2-0.5-0.9-0.7-1.4-0.5l-6.6,3.1  c-0.5,0.2-0.7,0.9-0.5,1.4C89,55.2,89.4,55.5,89.7,55.5z"/>
        <path d="M117.5,27.1H30.8c-3-14.1-11.2-15-11.9-15.1h-6.3c-1-2.4-3.3-4.5-6.1-4.5C2.9,7.5,0,10.4,0,14c0,3.6,2.9,6.6,6.5,6.6  c2.8,0,5.1-2.2,6.1-4.6h5.9c0.2,0,5.7,1.7,7.8,13.2c2.7,15.3,9.7,53.7,9.7,53.7c0,4.3,2.6,12.1,12.2,12.1h37l-1.5-3.9H48.1  c-4.1,0-5.9-3-6.7-5.1c6.5-0.4,24.3-1.6,40-2.7L80,78.4c-16,1.1-33.7,2.3-39.4,2.7C39.3,74.6,34.4,47,31.7,32h85.1  c3.9,0,6.7,3.2,6.2,7.1l-3.6,29.4c0,0.1-0.1,0.7-0.5,1.5l4.4,2.2c0.8-1.7,1-2.9,1-3.1l3.7-30.2C128.7,32.4,124.1,27.1,117.5,27.1z"/>
        <path d="M107.7,80.5l8.4-3.3c0.8-0.3,1.3-1,1.3-1.8c0-0.8-0.4-1.6-1.1-2L80.9,55.5c-0.7-0.4-1.6-0.3-2.3,0.3  C78,56.3,77.7,57.2,78,58l12,38.7c0.2,0.8,1,1.4,1.8,1.5c0.8,0.1,1.6-0.4,2-1.1l4.8-9.2l10.3,13.7c0.3,0.4,0.8,0.7,1.4,0.8  c0.1,0,0.2,0,0.3,0c0.4,0,0.9-0.1,1.3-0.4l6.3-4.9c0.4-0.3,0.7-0.8,0.8-1.4c0.1-0.6-0.1-1.1-0.4-1.6L107.7,80.5z M110.9,97.4  l-11-14.6c-0.4-0.5-1-0.8-1.6-0.8c-0.1,0-0.1,0-0.2,0c-0.7,0.1-1.3,0.5-1.7,1.1l-4,7.7l-9.1-29.3l26.9,13.6l-6.6,2.6  c-0.6,0.2-1.1,0.8-1.2,1.4c-0.2,0.6,0,1.3,0.4,1.8l11.2,14.2L110.9,97.4z"/>
        <path d="M99.2,103.7c-4.7,0-8.6,3.9-8.6,8.7c0,4.8,3.9,8.7,8.6,8.7c4.7,0,8.6-3.9,8.6-8.7C107.8,107.6,103.9,103.7,99.2,103.7z   M99.2,116.9c-2.5,0-4.5-2-4.5-4.5c0-2.5,2-4.5,4.5-4.5c2.5,0,4.5,2,4.5,4.5C103.7,114.8,101.7,116.9,99.2,116.9z"/>
        <path d="M49.7,103.7c-4.7,0-8.6,3.9-8.6,8.7c0,4.8,3.9,8.7,8.6,8.7c4.7,0,8.6-3.9,8.6-8.7C58.3,107.6,54.4,103.7,49.7,103.7z   M49.7,116.9c-2.5,0-4.5-2-4.5-4.5c0-2.5,2-4.5,4.5-4.5c2.5,0,4.5,2,4.5,4.5C54.2,114.8,52.2,116.9,49.7,116.9z"/>
    </g>
    <g transform="matrix(1,0,0,1,355,25)" fill="#2563eb">
        <rect xmlns="http://www.w3.org/2000/svg" y="0" height="1" width="1" opacity="0"/>
        <rect xmlns="http://www.w3.org/2000/svg" y="0" x="-235" width="3" height="40"/>
    </g>
    <g transform="matrix(0.6779201662526384,0,0,0.6779201662526384,136.23740989519732,27.678461428653442)" fill="#2563eb">
        <path d="M24.46 33.58 l2.06 2.18 c0.26 0.28 0.26 0.58 -0.02 0.84 c-2.54 2.46 -5.8 3.92 -9.64 3.92 c-7.98 0 -14.26 -6.38 -14.26 -14.4 c0 -8.06 6.28 -14.44 14.26 -14.44 c3.84 0 7.1 1.5 9.64 3.92 c0.28 0.26 0.28 0.56 0.02 0.84 l-2.06 2.18 c-0.26 0.28 -0.56 0.26 -0.84 0.02 c-1.86 -1.6 -4.02 -2.58 -6.78 -2.58 c-5.36 0 -9.64 4.3 -9.64 10.06 c0 5.7 4.28 10.02 9.64 10.02 c2.76 0 4.92 -0.98 6.78 -2.58 c0.28 -0.24 0.58 -0.26 0.84 0.02 z M49.54 36.38 c0.36 0 0.6 0.24 0.6 0.6 l0 2.42 c0 0.36 -0.24 0.6 -0.6 0.6 l-17.42 0 c-0.36 0 -0.6 -0.24 -0.6 -0.6 l0 -2.42 c0 -0.36 0.24 -0.6 0.6 -0.6 l6.98 0 l0 -20.76 l-6.52 0 c-0.36 0 -0.6 -0.24 -0.6 -0.6 l0 -2.42 c0 -0.36 0.24 -0.6 0.6 -0.6 l10.24 0 c0.36 0 0.6 0.24 0.6 0.6 l0 23.78 l6.12 0 z M64.54 16.26 c-1.4 0 -2.5 -1.1 -2.5 -2.48 c0 -1.4 1.1 -2.5 2.5 -2.5 c1.38 0 2.48 1.1 2.48 2.5 c0 1.38 -1.1 2.48 -2.48 2.48 z M72.66 36.38 c0.36 0 0.6 0.24 0.6 0.6 l0 2.42 c0 0.36 -0.24 0.6 -0.6 0.6 l-17.22 0 c-0.36 0 -0.6 -0.24 -0.6 -0.6 l0 -2.42 c0 -0.36 0.24 -0.6 0.6 -0.6 l6.98 0 l0 -12.36 l-5.98 0 c-0.36 0 -0.6 -0.24 -0.6 -0.6 l0 -2.42 c0 -0.36 0.24 -0.6 0.6 -0.6 l9.7 0 c0.36 0 0.6 0.24 0.6 0.6 l0 15.38 l5.92 0 z M88.46000000000001 36.5 c2.12 0 3.84 -0.88 5 -2.36 c0.24 -0.3 0.48 -0.36 0.8 -0.16 l2.3 1.34 c0.32 0.2 0.44 0.48 0.2 0.8 c-1.72 2.64 -4.76 4.4 -8.38 4.4 c-5.96 0 -10.32 -4.46 -10.32 -10.28 s4.36 -10.28 10.32 -10.28 c3.62 0 6.66 1.76 8.38 4.4 c0.24 0.32 0.12 0.6 -0.2 0.8 l-2.3 1.34 c-0.32 0.2 -0.56 0.14 -0.8 -0.16 c-1.16 -1.48 -2.88 -2.38 -5 -2.38 c-3.56 0 -6.2 2.56 -6.2 6.28 s2.64 6.26 6.2 6.26 z M121.12 39.28 c0.32 0.4 0.12 0.72 -0.36 0.72 l-3.58 0 c-0.32 0 -0.5 -0.08 -0.72 -0.36 l-6.52 -7.92 l-3.22 3.42 l0 4.26 c0 0.36 -0.24 0.6 -0.6 0.6 l-3.12 0 c-0.36 0 -0.6 -0.24 -0.6 -0.6 l0 -28 c0 -0.36 0.24 -0.6 0.6 -0.6 l3.12 0 c0.36 0 0.6 0.24 0.6 0.6 l0 18.38 l8.4 -9.06 c0.22 -0.24 0.46 -0.32 0.74 -0.32 l3.8 0 c0.52 0 0.7 0.34 0.32 0.72 l-7.34 7.76 z M147.28 12 c0.36 0 0.6 0.24 0.6 0.6 l0 26.8 c0 0.34 -0.22 0.58 -0.54 0.6 l-3.98 0 c-0.32 0 -0.56 -0.12 -0.72 -0.4 l-11.98 -20.76 l0 20.56 c0 0.36 -0.24 0.6 -0.6 0.6 l-3.28 0 c-0.36 0 -0.6 -0.24 -0.6 -0.6 l0 -26.8 c0 -0.34 0.22 -0.58 0.54 -0.6 l3.98 0 c0.32 0 0.56 0.12 0.72 0.4 l11.98 20.76 l0 -20.56 c0 -0.36 0.24 -0.6 0.6 -0.6 l3.28 0 z M174.4 12 c0.36 0 0.6 0.24 0.6 0.6 l0 2.82 c0 0.36 -0.24 0.6 -0.6 0.6 l-8.06 0 l0 23.38 c0 0.36 -0.24 0.6 -0.6 0.6 l-3.3 0 c-0.36 0 -0.6 -0.24 -0.6 -0.6 l0 -23.38 l-8.06 0 c-0.36 0 -0.6 -0.24 -0.6 -0.6 l0 -2.82 c0 -0.36 0.24 -0.6 0.6 -0.6 l20.62 0 z M189.70000000000002 40.52 c-5.7 0 -10.3 -4.52 -10.3 -10.28 c0 -5.74 4.6 -10.28 10.3 -10.28 c5.68 0 10.28 4.54 10.28 10.28 c0 5.76 -4.6 10.28 -10.28 10.28 z M189.70000000000002 36.5 c3.44 0 6.1 -2.8 6.1 -6.26 c0 -3.44 -2.66 -6.28 -6.1 -6.28 c-3.46 0 -6.12 2.84 -6.12 6.28 c0 3.46 2.66 6.26 6.12 6.26 z M223.3 20.4 c0.36 0 0.6 0.24 0.6 0.6 l0 18.4 c0 0.36 -0.24 0.6 -0.6 0.6 l-2.96 0 c-0.36 0 -0.56 -0.24 -0.6 -0.6 l-0.16 -2.66 l-0.4 0 c-1.22 1.9 -3.34 3.7 -6.54 3.7 c-4.2 0 -7.16 -2.84 -7.16 -8.08 l0 -11.36 c0 -0.36 0.24 -0.6 0.6 -0.6 l3.12 0 c0.36 0 0.6 0.24 0.6 0.6 l0 10.72 c0 3.34 1.76 4.76 4.58 4.76 c3.52 0 5.2 -3.3 5.2 -4.18 l0 -11.3 c0 -0.36 0.24 -0.6 0.6 -0.6 l3.12 0 z M247.62000000000003 36.38 c0.36 0 0.6 0.24 0.6 0.6 l0 2.42 c0 0.36 -0.24 0.6 -0.6 0.6 l-17.42 0 c-0.36 0 -0.6 -0.24 -0.6 -0.6 l0 -2.42 c0 -0.36 0.24 -0.6 0.6 -0.6 l6.98 0 l0 -20.76 l-6.52 0 c-0.36 0 -0.6 -0.24 -0.6 -0.6 l0 -2.42 c0 -0.36 0.24 -0.6 0.6 -0.6 l10.24 0 c0.36 0 0.6 0.24 0.6 0.6 l0 23.78 l6.12 0 z M263.22 40.52 c-5.7 0 -10.3 -4.52 -10.3 -10.28 c0 -5.74 4.6 -10.28 10.3 -10.28 c5.68 0 10.28 4.54 10.28 10.28 c0 5.76 -4.6 10.28 -10.28 10.28 z M263.22 36.5 c3.44 0 6.1 -2.8 6.1 -6.26 c0 -3.44 -2.66 -6.28 -6.1 -6.28 c-3.46 0 -6.12 2.84 -6.12 6.28 c0 3.46 2.66 6.26 6.12 6.26 z M290.54 19.96 c4.18 0 7.08 2.84 7.08 8.08 l0 11.36 c0 0.36 -0.24 0.6 -0.6 0.6 l-3.12 0 c-0.36 0 -0.6 -0.24 -0.6 -0.6 l0 -10.72 c0 -3.34 -1.72 -4.74 -4.34 -4.74 c-3.8 0 -5.44 3.28 -5.44 4.16 l0 11.3 c0 0.36 -0.24 0.6 -0.6 0.6 l-3.12 0 c-0.36 0 -0.6 -0.24 -0.6 -0.6 l0 -18.4 c0 -0.36 0.24 -0.6 0.6 -0.6 l2.96 0 c0.36 0 0.56 0.24 0.6 0.6 l0.16 2.64 l0.42 0 c1.16 -1.88 3.3 -3.68 6.6 -3.68 z"/>
    </g>
</svg>