<svg id="Calque_1" data-name="Calque 1" xmlns="http://www.w3.org/2000/svg" viewBox="0 0 485.33 435.62"><defs><style>.cls-1{fill:#ffcf02;}.cls-2{fill:#dbb101;}.cls-3{fill:#b7940c;}.cls-4{fill:#ffd003;}.cls-5{fill:#cea602;}.cls-6{fill:#000;}</style></defs><path class="cls-1" d="M303,327c15.47-.49,19.53,2.36,23.1,3.25,2.86.72,61.17,53.78,84.31,74.9h14L457.6,344s-82.4-46.37-99-72.1c-2.38-3.67-2.32-11.17-3.79-17.09l-75,58.2S287.53,327.44,303,327Z" transform="translate(-41.57 -67.68)"/><path class="cls-2" d="M231.37,226.62c5.49-8.24,15.59-17.54,23.34-32S304.9,173.14,318,162c0,0,5.68-1.79,6.4,6.11s-6.11,13.56-6.11,13.56,8.53-6.2,15-3.1,8.42,9.35.92,20.76c0,0,9.24-9.05,15.16-3.13,5.73,5.73,2.74,9.26-.26,21.75,0,0,4.71-.53,6.45,5.8,2,7.23-3.13,16.69-3.13,16.69s7.09.51,5,13.07S345.7,282.65,331,295.25c-6.52,5.6-34.06,23.21-64.16,25.43s-113.72,84.05-113.72,84.05L109,322.66s101.63-50,112.25-70.47C226.18,242.76,224.56,236.82,231.37,226.62Z" transform="translate(-41.57 -67.68)"/><path class="cls-3" d="M318.26,181.67s-3.2,2.33-7.71,5.52c-6.68,4.73-16.2,11.38-22.26,15.21l0,0c-1,.63-1.91,1.18-2.7,1.63-8.71,5-21.57,11.57-22.28,9.69s1.72-12.63,12.52-15.23a31.39,31.39,0,0,0,6.18-2.42c7.22-3.51,16.39-9.6,24.24-12.84C311,181.29,315.23,180.36,318.26,181.67Z" transform="translate(-41.57 -67.68)"/><path class="cls-3" d="M334.2,199.33s-17.13,14.61-16.42,16.48,3,5.88,4.85,2.78S335.63,202.86,334.2,199.33Z" transform="translate(-41.57 -67.68)"/><path class="cls-3" d="M348.68,218s-8.64,15.39-11.8,20.69.56,5.09,2.87,2.71S349.55,222.25,348.68,218Z" transform="translate(-41.57 -67.68)"/><path class="cls-4" d="M310.55,187.19c-6.68,4.73-16.2,11.38-22.26,15.21l0,0a50.17,50.17,0,0,0-6.28-6.33c-2.7-2.23-5.9-4.22-8.83-4.37-6.82-.35-21.79.65-26.07-13s6.39-9.5,14.23-7.84,25.24-.64,29.41.56c2.78.8,10.54,7.42,15.5,11.83C308.75,185.51,310.55,187.19,310.55,187.19Z" transform="translate(-41.57 -67.68)"/><path class="cls-4" d="M267.94,193.58c-.77-4.59-28.81-18.39-35.65-15.54s-10.68,8.23-8.38,16.87a11.19,11.19,0,0,0-10.73,7.8c-2.92,8.22,2.45,14.68,2.45,14.68s-10.34,5-10.09,11.66,8.82,11.69,8.82,11.69-7.93,12,2.57,17.06c0,0-.5.52,9.16-3.39s9.66-11.65,4.16-13.74c0,0,18-.41,20.48-6s1.37-9.79-6.31-12.1c0,0,14.85,4.27,17.52-2.92s.14-12.21-11.21-15.91c0,0,8.82.63,13.64-1S267.94,193.58,267.94,193.58Z" transform="translate(-41.57 -67.68)"/><path class="cls-5" d="M223.91,194.91s20.44,4.8,26.82,8.84c0,0-11.39-8.14-18.89-10.17S223.91,194.91,223.91,194.91Z" transform="translate(-41.57 -67.68)"/><path class="cls-5" d="M215.63,217.39s18.48.85,28.79,5.19C244.42,222.58,228.46,212.34,215.63,217.39Z" transform="translate(-41.57 -67.68)"/><path class="cls-5" d="M248,181.14s3.44,10.07,17.54,10.29h.85c14.82-.19-8.48,4.57-14.24-.09S248,181.14,248,181.14Z" transform="translate(-41.57 -67.68)"/><path class="cls-5" d="M214.36,240.74s12.24-4.3,15.89-.07c0,0-2.53-4.86-6.48-4.71S214.36,240.74,214.36,240.74Z" transform="translate(-41.57 -67.68)"/><path class="cls-3" d="M352.42,240.44s-4.43,13.45-8.34,18-5.12,6.23-2.36,6.67S352,249.31,352.42,240.44Z" transform="translate(-41.57 -67.68)"/><path class="cls-6" d="M165.9,323.1q-3.06-3.15-6-6.52L128.1,344.39q-2.13-2.44-4.2-5l32.69-26.77q-2.86-3.51-5.57-7.24l2.91-2.11a159.39,159.39,0,0,0,14.55,17.29Z" transform="translate(-41.57 -67.68)"/><path class="cls-6" d="M161.71,371.06c-1.3,1.77-3.32,1.68-6-.41q-5.9-4.62-11.52-9.75c-2.51-2.3-3-4.3-1.43-5.88l15.12-15.83c1.54-1.6,3.35-1.36,5.49.6q4.81,4.41,9.88,8.37c2.28,1.78,2.79,3.51,1.48,5.29Zm-4.57-3.66,13.39-17q-4.51-3.57-8.84-7.49L147.2,359Q152.06,363.4,157.14,367.4Z" transform="translate(-41.57 -67.68)"/><path class="cls-6" d="M188.82,391.64q-2.56-1.29-5.09-2.65l.37-.7c-2.15-.91-4.28-1.88-6.37-2.88a59.43,59.43,0,0,1-6.18-3.36c-2.69-1.71-3.42-3.5-2.25-5.24l14.19-21.24q2.07,1.4,4.17,2.71-6.65,10.61-13.3,21.21,5.49,3.31,11.14,6.22l11.79-21.82c1.45.78,2.9,1.54,4.37,2.28Z" transform="translate(-41.57 -67.68)"/><path class="cls-6" d="M223.76,401.87a2.7,2.7,0,0,1-1.91,1.88,5.81,5.81,0,0,1-3.55-.13c-5.41-1.71-10.77-3.66-16-5.84a6,6,0,0,1-2.86-2.19,2.69,2.69,0,0,1-.3-2.7q2.35-5.31,4.72-10.63c1.71.75,3.42,1.48,5.15,2.18l-4.26,10.45q6.67,2.72,13.51,4.92l3.39-10.4a170.29,170.29,0,0,1-10.2-20.16,4.64,4.64,0,0,1-.11-3.85q1.88-4.25,3.76-8.5a3,3,0,0,1,1.93-1.71,4.08,4.08,0,0,1,2.85.22q6.1,2.52,12.38,4.5a3.92,3.92,0,0,1,2.28,1.64,3,3,0,0,1,.32,2.54l-3,10.24q-2.41-.7-4.83-1.48,1.6-4.91,3.2-9.81-5.5-1.77-10.87-4l-3.66,9a167.31,167.31,0,0,0,10.42,19.88,4.56,4.56,0,0,1,.66,3.77Q225.26,396.78,223.76,401.87Z" transform="translate(-41.57 -67.68)"/><path class="cls-6" d="M256.49,408.38c-.25,2.19-2,3.12-5.2,2.68q-7.11-1-14.14-2.48c-3.15-.68-4.46-2.14-3.94-4.28q2.55-10.65,5.11-21.29c.52-2.15,2.12-2.89,4.81-2.31q6,1.28,12.13,2.12c2.75.38,4,1.62,3.75,3.82Zm-5.56-.84q1.56-10.71,3.11-21.43-5.46-.78-10.86-1.9l-4.44,21.2Q244.8,406.67,250.93,407.54Z" transform="translate(-41.57 -67.68)"/><path class="cls-6" d="M271.34,412.83c-1.88-.07-3.75-.17-5.62-.29l3.09-45.75c1.45.1,2.89.17,4.33.23Z" transform="translate(-41.57 -67.68)"/><path class="cls-6" d="M285.72,378.12c-1.59.06-3.19.1-4.79.11,0-1.64,0-3.28-.05-4.92,1.55,0,3.1-.05,4.65-.11C285.59,374.84,285.66,376.48,285.72,378.12ZM287,412.84c-1.87.07-3.74.12-5.62.14l-.3-28.51c1.61,0,3.22-.05,4.82-.12Q286.45,398.6,287,412.84Z" transform="translate(-41.57 -67.68)"/><path class="cls-6" d="M320.17,408.82c-1.85.39-3.71.74-5.58,1.07l-.13-.78c-5.91,1.69-9.26,2.38-9.91,2.47a9.08,9.08,0,0,1-6-1,5,5,0,0,1-2.56-4q-.72-8.31-1.43-16.61a5.47,5.47,0,0,1,1.81-4.57,9,9,0,0,1,5.24-2.35q4-.51,8-1.22l-3.06-17.07c1.44-.26,2.87-.53,4.31-.83Q315.5,386.38,320.17,408.82ZM314,406.4q-1.89-10.61-3.79-21.2-3.4.6-6.84,1.07c-2.72.37-4,1.6-3.72,3.8q.87,7.57,1.73,15.14c.24,2.17,1.91,3.1,5,2.68C307.06,407.79,309.62,407.36,314,406.4Z" transform="translate(-41.57 -67.68)"/><path class="cls-6" d="M352,399.47c-1.77.69-3.55,1.34-5.33,2l-.27-.75q-3.11,1.44-6.27,2.75a62,62,0,0,1-6.39,2.27c-3,.84-4.82.18-5.34-1.86l-2.58-10.07c-.54-2.13.63-3.54,3.5-4.34q6-1.67,11.83-3.74-1.46-4.05-2.89-8.09-5.1,1.8-10.3,3.29l1.35,4.68c-1.6.46-3.21.89-4.82,1.31-.4-1.56-.81-3.11-1.21-4.66-.55-2.14.52-3.54,3.18-4.28q5.7-1.6,11.3-3.62c2.61-.94,4.3-.42,5.11,1.64Q347.44,387.73,352,399.47Zm-6.44-1.39-3.39-9.5q-5.65,2-11.4,3.63l2.82,9.86Q339.65,400.27,345.57,398.08Z" transform="translate(-41.57 -67.68)"/><path class="cls-6" d="M351.27,361.94c-1.46.71-2.94,1.39-4.42,2l-2-4.5q2.16-.94,4.29-2Zm15,31.38q-2.58,1.23-5.19,2.39l-11.62-26c1.49-.66,3-1.35,4.45-2.06Z" transform="translate(-41.57 -67.68)"/><path class="cls-6" d="M383.24,361.31c-1.44,1-2.89,2-4.35,2.95l-3.23-4.93q-3.92,2.7-7.94,5.18,6.22,10.73,12.46,21.45c-1.69,1-3.39,1.94-5.1,2.86l-13.61-25.07q2.2-1.2,4.38-2.46l.39.69q2-1.51,4-3.13c1.6-1.27,2.94-2.28,4.06-3,2.32-1.55,4.07-1.49,5.29.26Z" transform="translate(-41.57 -67.68)"/><path class="cls-6" d="M416.64,354.14c1.54,1.58,1.09,3.58-1.41,5.9q-5.34,4.95-11,9.44c-2.63,2.1-4.64,2.21-6,.44l-13.2-17.48c-1.33-1.77-.84-3.5,1.41-5.29q4.82-3.84,9.41-8.1c2.14-2,3.95-2.23,5.49-.64l7.14,7.37c-.14.77-.28,1.55-.43,2.32q-5.7,5.44-11.75,10.31l6.45,8q4.94-4,9.65-8.3c-1.17-1.28-2.34-2.57-3.52-3.85q2.07-1.9,4.1-3.88Zm-13.22-5.89-5.79-6.34q-4.2,3.84-8.58,7.37l5.38,6.71Q399,352.29,403.42,348.25Z" transform="translate(-41.57 -67.68)"/><path class="cls-6" d="M439,328.29c1.79,1.29,1.64,3.41-.54,6.26q-4.41,5.74-9.11,11.07c-2.34,2.63-4.34,3.13-5.95,1.62l-4.72-4.43c1.31-1.4,2.6-2.84,3.88-4.29l4.81,4.24q4.06-4.63,7.91-9.6l-4.5-3.48A163.31,163.31,0,0,1,414.59,336a3.41,3.41,0,0,1-3.66-.53l-3.47-3.24c-1.61-1.52-1.38-3.35.61-5.6q4-4.51,7.72-9.37c1.86-2.44,3.65-3.05,5.44-1.76l4.59,3.35q-1.63,2.25-3.32,4.43l-4.45-3.44q-3.41,4.41-7,8.54l3.74,3.29a158.62,158.62,0,0,0,16-6.59,3.52,3.52,0,0,1,3.82.05Z" transform="translate(-41.57 -67.68)"/><path class="cls-6" d="M212.22,464.4a24.81,24.81,0,0,0-3.94.26l-1.09.17c-.35.05-.7.13-1.09.18-.72.15-1.46.31-2.24.52a66.09,66.09,0,0,0-9.75,3.72c-3.29,1.46-6.62,3.07-9.58,4.6s-5.58,3-7.45,4-3,1.63-3,1.63l.87.33c.58.17,1.39.5,2.43.78,2.09.61,5,1.38,8.32,2.05.85.16,1.66.35,2.55.48s1.81.22,2.72.31c1.83.21,3.7.36,5.55.39a35.37,35.37,0,0,0,10.65-1.18,26.49,26.49,0,0,0,13.48-9,27.15,27.15,0,0,0,3.87-6.07,20.11,20.11,0,0,0-5.86-2.27A27.28,27.28,0,0,0,212.22,464.4Z" transform="translate(-41.57 -67.68)"/><path class="cls-6" d="M222,438.88a38.17,38.17,0,0,0-5.51-6.51c-1-1-2.09-1.93-3.16-2.8l-1.58-1.23c-.49-.43-1-.84-1.47-1.22-2-1.52-3.81-2.76-5.11-3.57s-2.11-1.39-2.11-1.39,0,1.15.06,3.07a66,66,0,0,0,.66,7.43,70.22,70.22,0,0,0,2,9.45,37.65,37.65,0,0,0,3.83,8.66,18.78,18.78,0,0,0,1.22,1.79,8.35,8.35,0,0,0,.67.8c.2.24.42.48.64.72a20.93,20.93,0,0,0,2.85,2.37,18.93,18.93,0,0,0,2.89,1.7,14.72,14.72,0,0,0,2.72,1.07,19.23,19.23,0,0,0,6,.83,31.72,31.72,0,0,0,0-7.08,35.5,35.5,0,0,0-1.32-6.79c-.2-.61-.38-1.2-.62-1.79s-.47-1.26-.73-1.87A27.65,27.65,0,0,0,222,438.88Z" transform="translate(-41.57 -67.68)"/><path class="cls-6" d="M172.4,445.94c-.22-.2-.55-.48-.94-.85a25.5,25.5,0,0,0-3.68-2.59,22.65,22.65,0,0,0-2.74-1.31c-1-.41-2.13-.78-3.29-1.15a28.45,28.45,0,0,0-8.32-1.07c-1.65.06-3.33.15-5.07.31s-3.55.41-5.33.71-3.66.65-5.43,1-3.5.72-5.11,1c-3.29.69-6.18,1.35-8.25,1.85s-3.36.85-3.36.85,1.09.74,2.9,1.89c.89.55,2,1.22,3.24,1.94l2,1.11c.68.37,1.44.72,2.2,1.09,1.51.72,3.16,1.43,4.82,2.11.87.33,1.71.66,2.59,1,.45.19.85.33,1.3.48s.89.26,1.35.37a39.65,39.65,0,0,0,10.58,1.63,28.27,28.27,0,0,0,15.48-5.18,27.9,27.9,0,0,0,4-3.36c.9-.91,1.39-1.5,1.39-1.5S172.61,446.15,172.4,445.94Z" transform="translate(-41.57 -67.68)"/><path class="cls-6" d="M163.08,426.26a20.75,20.75,0,0,0,3.59,6.87,14,14,0,0,0,2.31,2.36,26.59,26.59,0,0,0,2.35,1.71,20.45,20.45,0,0,0,3.9,1.94,9.77,9.77,0,0,0,1.2.37l.45.09a20,20,0,0,0,.7-1.87,40.19,40.19,0,0,0,1.26-4.94,31.6,31.6,0,0,0-.52-14.77,30.32,30.32,0,0,0-3.5-7.72,55,55,0,0,0-4.56-6.67c-.78-.95-1.46-1.91-2.13-2.72s-1.24-1.52-1.74-2.11c-1-1.15-1.68-1.81-1.68-1.81s-.35,1.09-.76,2.94a67.2,67.2,0,0,0-1.44,7.36c-.21,1.5-.43,3.07-.54,4.7s-.17,3.23-.13,4.88.13,3.29.32,4.88A27.45,27.45,0,0,0,163.08,426.26Z" transform="translate(-41.57 -67.68)"/><path class="cls-6" d="M126,409.06a25.23,25.23,0,0,0-2.78-3.47,26.05,26.05,0,0,0-5.06-4,27.92,27.92,0,0,0-7.7-3.27c-1-.28-2.14-.5-3.27-.72s-2.24-.43-3.42-.61c-5.87-.89-12.52-1.23-17.52-1.54s-8.67-.35-8.67-.35S78.84,396.69,81,399a72.72,72.72,0,0,0,8.69,7.95l1.63,1.24.87.63c.26.18.57.37.85.55,1.2.76,2.4,1.5,3.62,2.16s2.44,1.26,3.68,1.76a22.15,22.15,0,0,0,3.68,1.3,29.52,29.52,0,0,0,23-4.07A15.4,15.4,0,0,0,126,409.06Z" transform="translate(-41.57 -67.68)"/><path class="cls-6" d="M128.2,401.44a18.84,18.84,0,0,0,3.2,2.93,11.91,11.91,0,0,0,1.46.85,33.74,33.74,0,0,0,3.83-6,31.52,31.52,0,0,0,3.81-14.32,28.26,28.26,0,0,0-.63-6.14c-.18-1-.46-2-.72-3s-.54-2-.83-2.91c-.52-1.64-1.09-3.2-1.67-4.58-.14-.36-.29-.69-.4-1s-.28-.67-.41-1c-.24-.65-.48-1.22-.72-1.76-.91-2.16-1.63-3.46-1.63-3.46a77.19,77.19,0,0,0-3.87,6.81c-.53,1-1.07,2.13-1.6,3.31-.28.61-.54,1.22-.8,1.81s-.48,1.24-.74,1.87a58.25,58.25,0,0,0-2.33,7.92c-.24,1-.39,2.07-.54,3.07a26.16,26.16,0,0,0-.14,2.88,20.43,20.43,0,0,0,1.44,7.58A19.13,19.13,0,0,0,128.2,401.44Z" transform="translate(-41.57 -67.68)"/><path class="cls-6" d="M82.48,365.29a31.45,31.45,0,0,0,10.86-1.35,13.53,13.53,0,0,0-.44-1.65,19.14,19.14,0,0,0-.69-1.79,17.68,17.68,0,0,0-1-2.26,23.67,23.67,0,0,0-3.73-5.19c-.39-.39-.82-.84-1.3-1.34s-1-.9-1.48-1.35a28.37,28.37,0,0,0-3.62-2.53,47.52,47.52,0,0,0-4.52-2.33c-1.51-.76-3.16-1.48-4.84-2.18-3.37-1.37-6.88-2.65-10.1-3.74s-5.9-2.05-7.91-2.7-3.3-1-3.3-1,.48,1.18,1.37,3.08c.45,1,1,2.11,1.63,3.35s1.48,2.57,2.33,4,1.85,2.86,2.88,4.32l.78,1.08c.3.33.57.7.87,1.05.59.7,1.18,1.39,1.79,2.07a49.49,49.49,0,0,0,3.87,3.81,21.32,21.32,0,0,0,2,1.65c.7.48,1.4,1,2.14,1.39a28.35,28.35,0,0,0,8.47,3.18A29.64,29.64,0,0,0,82.48,365.29Z" transform="translate(-41.57 -67.68)"/><path class="cls-6" d="M95.5,349.75a21.29,21.29,0,0,0,1.65,5.83c.37.79.77,1.52,1.13,2.13a13.75,13.75,0,0,0,1.13,1.51,13.11,13.11,0,0,0,1.12,1.22,33.66,33.66,0,0,0,5.42-4.73c.74-.76,1.46-1.59,2.2-2.5s1.5-2,2.22-3a28.77,28.77,0,0,0,3.41-7.2c.2-.66.35-1.33.53-2s.3-1.39.41-2.09a37.66,37.66,0,0,0,.41-4.22c0-2.77.09-5.57-.12-8-.09-1.22-.22-2.35-.35-3.37s-.16-1.92-.26-2.68c-.18-1.51-.37-2.42-.37-2.42s-.9.76-2.31,2.09-3.33,3.2-5.38,5.49a69.08,69.08,0,0,0-5.84,7.71c-.91,1.41-1.74,2.85-2.48,4.29a27.22,27.22,0,0,0-1.68,4.26,19.33,19.33,0,0,0-.84,4,17,17,0,0,0-.11,1.87c0,.29,0,.61,0,.91S95.47,349.46,95.5,349.75Z" transform="translate(-41.57 -67.68)"/><path class="cls-6" d="M56.94,307.49a25.82,25.82,0,0,0,3.76,2.19,30.17,30.17,0,0,0,7,2.36,29.35,29.35,0,0,0,7.36.63,18.09,18.09,0,0,0-.44-6.06c-.2-.89-.52-1.83-.81-2.83a23.82,23.82,0,0,0-1.26-3.13,22.63,22.63,0,0,0-2-3.29c-.39-.57-.83-1.13-1.31-1.7l-.72-.85c-.26-.28-.5-.56-.78-.84-4.2-4.53-11-9.19-16.31-13-2.74-1.87-5.18-3.48-7-4.62s-2.91-1.83-2.91-1.83.15,1.25.52,3.32.87,4.91,1.72,8.05a74.51,74.51,0,0,0,3.72,9.84c.39.83.81,1.63,1.27,2.4s.93,1.52,1.43,2.26a30.55,30.55,0,0,0,3.16,4A22.51,22.51,0,0,0,56.94,307.49Z" transform="translate(-41.57 -67.68)"/><path class="cls-6" d="M83,311.17A37.13,37.13,0,0,0,89.62,308a40.47,40.47,0,0,0,5.75-4.18A29.13,29.13,0,0,0,98.13,301a24.75,24.75,0,0,0,4.6-7c.6-1.3,1-2.61,1.52-4a48.33,48.33,0,0,0,2.09-7.71c.61-2.43.94-4.52,1.17-6s.24-2.43.24-2.43-1.06.5-2.76,1.41-4,2.24-6.64,3.92a63,63,0,0,0-7.84,5.94,39.36,39.36,0,0,0-6.42,7.17,16.49,16.49,0,0,0-1.9,3.67,21.09,21.09,0,0,0-1,3.49,19.84,19.84,0,0,0-.32,3.24,14.93,14.93,0,0,0,.24,2.83A17.32,17.32,0,0,0,83,311.17Z" transform="translate(-41.57 -67.68)"/><path class="cls-6" d="M50.23,231a39,39,0,0,0,.76,4,27.12,27.12,0,0,0,2.59,7.3,25.91,25.91,0,0,0,5.47,7,28.19,28.19,0,0,0,6.07,4.15A30,30,0,0,0,72.05,256a9.12,9.12,0,0,0,.52-1.63,28.6,28.6,0,0,0,.81-4.31,21.92,21.92,0,0,0-.33-6.27,26.21,26.21,0,0,0-2.61-7.71c-.5-.91-1-1.87-1.64-2.81-.28-.47-.59-.95-.93-1.45L67,230.39c-1.63-2.39-3.44-4.83-5.29-7.12s-3.66-4.53-5.24-6.42c-3.14-3.81-5.53-6.45-5.53-6.45s-.37,1.94-.74,5a49.12,49.12,0,0,0-.35,5.28c-.07,2-.07,4.09,0,6.27A37.71,37.71,0,0,0,50.23,231Z" transform="translate(-41.57 -67.68)"/><path class="cls-6" d="M100.88,248.53a11.15,11.15,0,0,0,1.13-1c.39-.37.78-.74,1.15-1.13a27,27,0,0,0,2-2.39c.65-.83,1.28-1.66,1.85-2.53l1.67-2.55c.92-1.44,1.75-2.91,2.44-4.22.37-.68.7-1.33,1-1.94s.63-1.16.87-1.68c1.07-2.07,1.61-3.44,1.61-3.44s-3.28.51-7.9,1.75c-1.13.3-2.41.65-3.61,1.08s-2.55.87-3.83,1.37a58.72,58.72,0,0,0-7.73,3.6,29.63,29.63,0,0,0-5,3.51A20.47,20.47,0,0,0,81.65,245a19.37,19.37,0,0,0-1.76,5.79,14.58,14.58,0,0,0-.09,4.23,12.61,12.61,0,0,0,.3,1.65,36.28,36.28,0,0,0,7.21-1.3A34.7,34.7,0,0,0,100.88,248.53Z" transform="translate(-41.57 -67.68)"/><path class="cls-6" d="M75,190.81a29,29,0,0,0,4.66,5.64,28.15,28.15,0,0,0,5.9,4.33,12.46,12.46,0,0,0,1-1.4,25.26,25.26,0,0,0,3.56-10c.12-1.18.12-2.48.12-3.81a23.55,23.55,0,0,0-.4-4.29,48.57,48.57,0,0,0-1.17-4.73c-.24-.82-.52-1.67-.79-2.5s-.58-1.64-.85-2.48c-1.15-3.33-2.52-6.65-3.79-9.67-.63-1.48-1.26-2.92-1.8-4.18s-1.07-2.4-1.46-3.35c-.85-1.88-1.39-3-1.39-3s-.61,1.13-1.48,3a37,37,0,0,0-1.46,3.42c-.5,1.34-1,2.8-1.53,4.33-.24.8-.52,1.59-.78,2.41s-.48,1.66-.65,2.55c-.4,1.7-.7,3.51-.94,5.29a39.54,39.54,0,0,0-.39,5.27,28,28,0,0,0,.48,5A25.06,25.06,0,0,0,75,190.81Z" transform="translate(-41.57 -67.68)"/><path class="cls-6" d="M119.12,199.34a35.57,35.57,0,0,0,3.61-2.5c1.12-.88,2.18-1.81,3.18-2.75s2-1.8,2.9-2.68,1.68-1.73,2.39-2.47c.35-.4.66-.77,1-1.11l.87-.92c1-1.15,1.64-1.87,1.64-1.87s-1.2-.13-3.16-.26a74.64,74.64,0,0,0-7.81-.14,77.88,77.88,0,0,0-9.93.92l-2.55.48-2.38.65a29.77,29.77,0,0,0-4.44,1.63,22.94,22.94,0,0,0-3.68,2.07A19.35,19.35,0,0,0,98,192.87a22.87,22.87,0,0,0-3.46,5A17,17,0,0,0,93.26,202a11.73,11.73,0,0,0-.22,1.63,36.47,36.47,0,0,0,7.31.72,38.56,38.56,0,0,0,7.16-.55,32.47,32.47,0,0,0,7.89-2.33A27.2,27.2,0,0,0,119.12,199.34Z" transform="translate(-41.57 -67.68)"/><path class="cls-6" d="M105.6,141.16a27.42,27.42,0,0,0,2.9,6.62,28.53,28.53,0,0,0,4.42,5.66,21.17,21.17,0,0,0,6-6.85,23.52,23.52,0,0,0,1.58-3,26.85,26.85,0,0,0,2-7.92,61,61,0,0,0,0-10c-.27-3.59-.57-7.09-1-10.3s-.79-6-1.09-8.12-.51-3.28-.51-3.28a7.61,7.61,0,0,0-.63.69l-1.61,1.88c-1.35,1.65-3.18,4-5.07,6.68a73.1,73.1,0,0,0-5.09,9.25,34.59,34.59,0,0,0-2.73,10,19,19,0,0,0-.13,2.35,18.62,18.62,0,0,0,.14,2.25A23.84,23.84,0,0,0,105.6,141.16Z" transform="translate(-41.57 -67.68)"/><path class="cls-6" d="M145.81,160.74a19.32,19.32,0,0,0,2.05-.74l1-.39c.37-.16.7-.27,1-.42a52.86,52.86,0,0,0,7.38-3.68c2.23-1.19,4.06-2.35,5.38-3.2l1.49-1.06.58-.37-.8-.29c-.53-.19-1.25-.46-2.18-.76-1.83-.61-4.44-1.39-7.45-2.11-1.5-.35-3.09-.68-4.77-1-.84-.15-1.69-.29-2.52-.41s-1.72-.2-2.53-.26a41.58,41.58,0,0,0-9.84.21,21.7,21.7,0,0,0-7.44,2.75,19.88,19.88,0,0,0-2.73,1.93,27.21,27.21,0,0,0-2,2.07,17.13,17.13,0,0,0-3,5.07,36.17,36.17,0,0,0,6.88,2.6,38.38,38.38,0,0,0,7.06,1.34,34.09,34.09,0,0,0,8.21-.26A30.78,30.78,0,0,0,145.81,160.74Z" transform="translate(-41.57 -67.68)"/><path class="cls-6" d="M153.69,111.53c.53,1.14.92,1.79.92,1.79a4,4,0,0,0,.44-.17c.28-.12.69-.27,1.19-.51a20.79,20.79,0,0,0,3.88-2.31,26.92,26.92,0,0,0,8.81-11.49A65.29,65.29,0,0,0,171,92.59c.75-2.77,1.36-5.75,1.92-8.62s1.09-5.55,1.5-8c.81-4.83,1.24-8.3,1.24-8.3s-1.74,1-4.3,2.85c-1.27.87-2.77,2-4.36,3.2s-3.18,2.73-4.77,4.29c-1,.94-1.94,1.92-2.87,2.94-.26.26-.48.51-.7.77s-.43.54-.67.82c-.42.53-.83,1.09-1.24,1.64a33.9,33.9,0,0,0-3.92,6.74,21.27,21.27,0,0,0-1.29,4.43,26.26,26.26,0,0,0-.41,4.2,25.27,25.27,0,0,0,.85,7.1A30,30,0,0,0,153.69,111.53Z" transform="translate(-41.57 -67.68)"/><path class="cls-6" d="M192.39,128.17c1.74-.35,3.39-.76,4.91-1.14s2.88-.72,4-1c2.29-.68,3.71-1.24,3.71-1.24a79.38,79.38,0,0,0-6.64-4.4,77.48,77.48,0,0,0-6.89-3.74,57.34,57.34,0,0,0-7.92-3,32.71,32.71,0,0,0-6.1-1.31,20.6,20.6,0,0,0-13.63,3.23,22.52,22.52,0,0,0-3.33,2.78,10.42,10.42,0,0,0-.83.91c-.17.24-.25.37-.25.37s.54.53,1.54,1.33a38,38,0,0,0,4.31,3,39.18,39.18,0,0,0,6.42,3.18,29.7,29.7,0,0,0,3.81,1.19,41.75,41.75,0,0,0,4.14.76C183.92,129.5,188.31,128.82,192.39,128.17Z" transform="translate(-41.57 -67.68)"/><path class="cls-6" d="M254.81,468.86c-1.14-.15-2.57-.32-4.18-.5-.81-.13-1.66-.19-2.57-.35l-2.81-.5c-2-.34-4.1-.69-6.38-1.09s-4.59-1-7-1.54c-1.22-.29-2.47-.52-3.71-.87l-3.76-1c-2.53-.72-5.14-1.33-7.66-2.2a206.45,206.45,0,0,1-27.18-10.67l-4.87-2.38-2-1c-.63-.31-1.19-.65-1.68-.91l-3.2-1.77-3.19-1.76c-2-1.15-4.77-2.94-8.17-5a202.91,202.91,0,0,1-43.54-37.73c-.66-.72-1.22-1.46-1.79-2.16s-1.09-1.34-1.61-1.94c-1-1.23-1.87-2.32-2.61-3.2s-1.23-1.63-1.59-2.11-.57-.74-.57-.74l-2.13-2.89c-.64-.92-1.51-2-2.4-3.33s-1.89-2.81-3-4.42c-.54-.81-1.11-1.66-1.68-2.55s-1.11-1.81-1.69-2.77q-1.71-2.9-3.6-6c-1.13-2.15-2.32-4.37-3.52-6.6-.31-.58-.61-1.13-.9-1.71s-.54-1.16-.84-1.73c-.53-1.19-1.09-2.35-1.64-3.54a183.27,183.27,0,0,1-10-26.57c-.26-.93-.52-1.82-.8-2.65s-.47-1.64-.66-2.4c-.35-1.54-.68-2.87-.92-4-.54-2.18-.86-3.44-.86-3.44l-.2-.89c-.13-.59-.3-1.48-.5-2.59s-.44-2.42-.72-4-.68-3.3-.89-5.22-.53-4-.83-6.16c-.06-.55-.15-1.11-.2-1.66s-.1-1.13-.15-1.72c-.09-1.17-.21-2.33-.3-3.55-.5-4.79-.5-9.93-.64-15.08.14-5.15.14-10.3.64-15.1.09-1.19.21-2.37.3-3.54,0-.57.07-1.14.15-1.72s.14-1.11.2-1.66c.3-2.18.59-4.27.83-6.18s.61-3.64.89-5.2.52-2.88.72-4,.37-2,.5-2.55.2-.93.2-.93.32-1.24.86-3.42c.24-1.11.57-2.44.92-4,.19-.75.43-1.57.66-2.42s.54-1.72.8-2.66a184.66,184.66,0,0,1,10-26.58c.55-1.15,1.11-2.35,1.64-3.49.3-.6.56-1.17.84-1.76s.59-1.13.9-1.7l3.52-6.61c1.26-2.08,2.46-4.1,3.6-6,.58-.95,1.1-1.91,1.69-2.8s1.14-1.7,1.68-2.51c1.07-1.63,2.07-3.13,3-4.44s1.76-2.41,2.4-3.31l2.13-2.89.57-.76c.36-.49.85-1.23,1.59-2.1s1.59-2,2.61-3.2c.52-.61,1-1.26,1.61-2s1.13-1.43,1.79-2.15a202.91,202.91,0,0,1,43.54-37.73c3.4-2.07,6.14-3.84,8.17-5s3.19-1.76,3.19-1.76l3.2-1.77c.49-.28,1.05-.57,1.68-.91l2-1c.48-.24,1-.5,1.52-.74h.13a39.46,39.46,0,0,0,5.25.06,34.66,34.66,0,0,0,14.83-3.79,32.73,32.73,0,0,0,7-5c1-1,2.09-1.94,3.07-2.9s1.87-1.94,2.68-2.85c1.58-1.88,3-3.51,4-4.73l1.46-2s-1.19-.06-3.13-.08-4.73,0-7.82.3c-.8.05-1.59.13-2.4.22s-1.63.21-2.45.35c-1.64.24-3.32.58-5,1a37.12,37.12,0,0,0-9.21,3.25,22.11,22.11,0,0,0-6.18,4.92,20,20,0,0,0-3.08,5.29,19.16,19.16,0,0,0-1.06,4.09,4.13,4.13,0,0,0-.05.57c-.21.09-.39.2-.6.28-.72.37-1.4.7-2.05,1s-1.18.64-1.7.94l-3.2,1.77s-1.18.63-3.2,1.78-4.85,3-8.27,5.07a216.24,216.24,0,0,0-23.41,17.53,220.79,220.79,0,0,0-20.57,20.57c-.66.73-1.23,1.49-1.81,2.16l-1.61,2c-1,1.24-1.9,2.33-2.64,3.21s-1.24,1.65-1.63,2.13-.57.76-.57.76-.76,1.05-2.13,2.9c-.67.95-1.55,2.06-2.46,3.37s-1.87,2.83-3,4.48l-1.74,2.55c-.55.88-1.11,1.85-1.7,2.81-1.15,1.92-2.37,4-3.62,6.1s-2.35,4.38-3.54,6.68L94,187.93c-.26.57-.56,1.16-.83,1.75-.54,1.19-1.09,2.37-1.67,3.56a180.68,180.68,0,0,0-10.06,26.83c-.29.94-.55,1.83-.79,2.7a20.47,20.47,0,0,0-.69,2.42c-.37,1.56-.68,2.91-1,4-.52,2.2-.85,3.46-.85,3.46s-.07.33-.2.9-.28,1.5-.5,2.61-.47,2.48-.74,4-.67,3.31-.89,5.25-.54,4-.83,6.24c-.06.55-.15,1.12-.21,1.68s-.11,1.16-.16,1.74c-.11,1.16-.19,2.35-.28,3.59-.5,4.84-.5,10-.68,15.23.18,5.2.18,10.4.68,15.24.09,1.23.17,2.41.28,3.57.05.6.09,1.17.16,1.74s.15,1.13.21,1.69c.29,2.2.59,4.3.83,6.23s.61,3.68.89,5.25.55,2.9.74,4,.35,2,.5,2.61l.2.89s.33,1.27.85,3.47c.28,1.13.59,2.48,1,4a21.56,21.56,0,0,0,.69,2.46c.24.85.5,1.74.79,2.7a181.43,181.43,0,0,0,10.06,26.82c.58,1.2,1.13,2.38,1.67,3.55.27.59.57,1.18.83,1.77s.61,1.15.92,1.72c1.19,2.26,2.39,4.52,3.54,6.66s2.47,4.16,3.62,6.1c.59.95,1.15,1.93,1.7,2.82s1.17,1.73,1.74,2.55c1.09,1.64,2.07,3.14,3,4.47s1.79,2.44,2.46,3.37c1.37,1.85,2.13,2.9,2.13,2.9s.2.26.57.78.89,1.22,1.63,2.11,1.61,2,2.64,3.23l1.61,2c.58.67,1.15,1.45,1.81,2.17a217.2,217.2,0,0,0,20.57,20.56,219.33,219.33,0,0,0,23.41,17.55c3.42,2.09,6.24,3.89,8.27,5.07s3.2,1.76,3.2,1.76l3.2,1.79c.52.28,1.11.59,1.7.93l2.05,1q2.19,1.1,4.94,2.43a210.24,210.24,0,0,0,27.47,10.76c2.55.89,5.16,1.5,7.73,2.22l3.79,1c1.24.35,2.49.59,3.73.88l7.12,1.56c2.26.38,4.42.75,6.42,1.11,1,.16,2,.35,2.87.49s1.77.23,2.59.36c1.62.18,3,.37,4.25.5l3.66.46.22-2Z" transform="translate(-41.57 -67.68)"/><path class="cls-6" d="M356.26,464.4a25.57,25.57,0,0,1,4,.26l1,.17c.36.05.73.13,1.1.18.72.15,1.48.31,2.22.52a64.72,64.72,0,0,1,9.78,3.72c3.27,1.46,6.6,3.07,9.58,4.6s5.6,3,7.45,4,2.94,1.63,2.94,1.63l-.85.33c-.57.17-1.37.5-2.42.78-2.09.61-5,1.38-8.32,2.05-.84.16-1.69.35-2.55.48s-1.8.22-2.71.31c-1.84.21-3.69.36-5.56.39a35.4,35.4,0,0,1-10.66-1.18,26.47,26.47,0,0,1-13.46-9,26.84,26.84,0,0,1-3.86-6.07,20.12,20.12,0,0,1,5.84-2.27A26.92,26.92,0,0,1,356.26,464.4Z" transform="translate(-41.57 -67.68)"/><path class="cls-6" d="M346.43,438.88a37.79,37.79,0,0,1,5.52-6.51c1-1,2.1-1.93,3.16-2.8.55-.44,1.09-.85,1.59-1.23s1-.84,1.52-1.22a55.2,55.2,0,0,1,5.08-3.57c1.26-.89,2.09-1.39,2.09-1.39s0,1.15-.05,3.07a71,71,0,0,1-2.69,16.88,37.19,37.19,0,0,1-3.81,8.66,20.84,20.84,0,0,1-1.22,1.79,8.23,8.23,0,0,1-.66.8c-.21.24-.43.48-.67.72a20.21,20.21,0,0,1-2.83,2.37,20.82,20.82,0,0,1-2.86,1.7,16.41,16.41,0,0,1-2.74,1.07,19.5,19.5,0,0,1-6.05.83,33.39,33.39,0,0,1,0-7.08,34.21,34.21,0,0,1,1.35-6.79,14.52,14.52,0,0,1,.61-1.79,16.37,16.37,0,0,1,.72-1.87A26.35,26.35,0,0,1,346.43,438.88Z" transform="translate(-41.57 -67.68)"/><path class="cls-6" d="M396.05,445.94c.24-.2.58-.48,1-.85a23.41,23.41,0,0,1,3.68-2.59,23,23,0,0,1,2.72-1.31c1-.41,2.11-.78,3.29-1.15a28.48,28.48,0,0,1,8.35-1.07c1.6.06,3.27.15,5,.31s3.53.41,5.34.71,3.64.65,5.44,1,3.48.72,5.12,1c3.26.69,6.16,1.35,8.23,1.85s3.35.85,3.35.85-1.07.74-2.89,1.89c-.92.55-2,1.22-3.23,1.94l-2,1.11c-.69.37-1.44.72-2.2,1.09-1.54.72-3.17,1.43-4.85,2.11-.85.33-1.7.66-2.59,1-.42.19-.87.33-1.29.48s-.89.26-1.35.37a39.69,39.69,0,0,1-10.56,1.63,28.28,28.28,0,0,1-15.5-5.18,27.57,27.57,0,0,1-4-3.36,17,17,0,0,1-1.39-1.5S395.85,446.15,396.05,445.94Z" transform="translate(-41.57 -67.68)"/><path class="cls-6" d="M405.41,426.26a20.39,20.39,0,0,1-3.6,6.87,14.36,14.36,0,0,1-2.3,2.36,25.2,25.2,0,0,1-2.35,1.71,21.94,21.94,0,0,1-3.88,1.94,9.38,9.38,0,0,1-1.22.37,3.86,3.86,0,0,1-.46.09s-.3-.68-.69-1.87a35.77,35.77,0,0,1-1.24-4.94,29.68,29.68,0,0,1,4-22.49,57.42,57.42,0,0,1,4.57-6.67c.78-.95,1.46-1.91,2.12-2.72s1.26-1.52,1.76-2.11c1-1.15,1.69-1.81,1.69-1.81s.33,1.09.77,2.94,1,4.4,1.43,7.36c.22,1.5.42,3.07.51,4.7a43.79,43.79,0,0,1,.13,4.88c0,1.63-.13,3.29-.29,4.88A25.51,25.51,0,0,1,405.41,426.26Z" transform="translate(-41.57 -67.68)"/><path class="cls-6" d="M442.46,409.06a24.29,24.29,0,0,1,2.77-3.47,25.15,25.15,0,0,1,5.09-4,26.93,26.93,0,0,1,7.67-3.27c1-.28,2.15-.5,3.26-.72s2.25-.43,3.44-.61c5.88-.89,12.52-1.23,17.51-1.54s8.69-.35,8.69-.35-1.25,1.55-3.36,3.85a71.77,71.77,0,0,1-8.68,7.95l-1.64,1.24c-.28.2-.56.4-.83.63l-.89.55c-1.17.76-2.39,1.5-3.61,2.16s-2.46,1.26-3.68,1.76a21.84,21.84,0,0,1-3.68,1.3,29.54,29.54,0,0,1-23-4.07A11.46,11.46,0,0,1,442.46,409.06Z" transform="translate(-41.57 -67.68)"/><path class="cls-6" d="M440.27,401.44a18.11,18.11,0,0,1-3.2,2.93,10.3,10.3,0,0,1-1.44.85,32.45,32.45,0,0,1-3.83-6A31.65,31.65,0,0,1,428,384.91a29.53,29.53,0,0,1,.61-6.14c.21-1,.45-2,.73-3s.53-2,.87-2.91c.49-1.64,1.07-3.2,1.62-4.58.15-.36.3-.69.45-1s.26-.67.37-1c.26-.65.5-1.22.72-1.76.92-2.16,1.63-3.46,1.63-3.46a75.51,75.51,0,0,1,3.88,6.81c.52,1,1.07,2.13,1.61,3.31.26.61.53,1.22.79,1.81s.48,1.24.72,1.87a53.11,53.11,0,0,1,2.35,7.92c.23,1,.39,2.07.52,3.07a19.15,19.15,0,0,1,.17,2.88,20.23,20.23,0,0,1-1.45,7.58A19.4,19.4,0,0,1,440.27,401.44Z" transform="translate(-41.57 -67.68)"/><path class="cls-6" d="M486,365.29a29.78,29.78,0,0,1-3.55,0,30.15,30.15,0,0,1-7.29-1.33,10.11,10.11,0,0,1,.41-1.65c.17-.52.43-1.11.68-1.79a19.9,19.9,0,0,1,1-2.26,22.81,22.81,0,0,1,3.7-5.19l1.31-1.34c.46-.46.95-.9,1.48-1.35a27.81,27.81,0,0,1,3.63-2.53,50.3,50.3,0,0,1,4.47-2.33c1.57-.76,3.2-1.48,4.9-2.18,3.35-1.37,6.85-2.65,10-3.74s5.93-2.05,7.95-2.7,3.25-1,3.25-1-.46,1.18-1.33,3.08c-.44,1-1,2.11-1.64,3.35s-1.46,2.57-2.35,4-1.83,2.86-2.87,4.32c-.24.36-.5.71-.78,1.08s-.57.7-.87,1.05c-.57.7-1.18,1.39-1.77,2.07a49.59,49.59,0,0,1-3.88,3.81,25.33,25.33,0,0,1-2,1.65c-.72.48-1.44,1-2.15,1.39a28.66,28.66,0,0,1-8.49,3.18A29.64,29.64,0,0,1,486,365.29Z" transform="translate(-41.57 -67.68)"/><path class="cls-6" d="M473,349.75a20.61,20.61,0,0,1-1.64,5.83,22.93,22.93,0,0,1-1.13,2.13c-.39.61-.82,1.11-1.13,1.51a11.81,11.81,0,0,1-1.17,1.22,35.23,35.23,0,0,1-5.42-4.73c-.7-.76-1.4-1.59-2.18-2.5s-1.51-2-2.2-3a28.45,28.45,0,0,1-3.42-7.2c-.19-.66-.35-1.33-.5-2s-.31-1.39-.42-2.09a31.77,31.77,0,0,1-.43-4.22c0-2.77-.07-5.57.11-8,.09-1.22.24-2.35.35-3.37s.21-1.92.28-2.68c.18-1.51.35-2.42.35-2.42s.91.76,2.29,2.09,3.35,3.2,5.41,5.49a67.88,67.88,0,0,1,5.84,7.71c.91,1.41,1.76,2.85,2.5,4.29a29.34,29.34,0,0,1,1.68,4.26,23.13,23.13,0,0,1,.83,4c.06.63.09,1.26.11,1.87,0,.29,0,.61,0,.91A8.36,8.36,0,0,1,473,349.75Z" transform="translate(-41.57 -67.68)"/><path class="cls-6" d="M511.55,307.49a27.41,27.41,0,0,1-3.75,2.19,30.68,30.68,0,0,1-7.07,2.36,29.2,29.2,0,0,1-7.34.63,18.76,18.76,0,0,1,.44-6.06,23.5,23.5,0,0,1,.82-2.83,20.28,20.28,0,0,1,1.26-3.13,22.53,22.53,0,0,1,2-3.29,21.36,21.36,0,0,1,1.3-1.7c.24-.28.48-.56.76-.85s.5-.56.75-.84c4.2-4.53,11-9.19,16.34-13,2.69-1.87,5.16-3.48,7-4.62s2.88-1.83,2.88-1.83-.15,1.25-.5,3.32-.9,4.91-1.72,8.05a73.21,73.21,0,0,1-3.73,9.84,22.93,22.93,0,0,1-1.28,2.4c-.44.78-.92,1.52-1.4,2.26a32.39,32.39,0,0,1-3.17,4A22.51,22.51,0,0,1,511.55,307.49Z" transform="translate(-41.57 -67.68)"/><path class="cls-6" d="M485.48,311.17a37.63,37.63,0,0,1-6.63-3.16,39.8,39.8,0,0,1-5.73-4.18,26.88,26.88,0,0,1-2.75-2.79,28.55,28.55,0,0,1-2.58-3.25,28,28,0,0,1-2-3.72c-.57-1.3-1-2.61-1.57-4a54.06,54.06,0,0,1-2.07-7.71c-.56-2.43-.93-4.52-1.13-6s-.26-2.43-.26-2.43,1.07.5,2.76,1.41,4,2.24,6.62,3.92a59.65,59.65,0,0,1,7.86,5.94,39.43,39.43,0,0,1,6.43,7.17,15.63,15.63,0,0,1,1.89,3.67,20.16,20.16,0,0,1,1,3.49,17.8,17.8,0,0,1,.31,3.24,11.23,11.23,0,0,1-.24,2.83A17.5,17.5,0,0,1,485.48,311.17Z" transform="translate(-41.57 -67.68)"/><path class="cls-6" d="M518.27,231c-.23,1.35-.45,2.7-.76,4a27.09,27.09,0,0,1-2.57,7.3,26.4,26.4,0,0,1-5.51,7,28,28,0,0,1-6.07,4.15,30,30,0,0,1-6.94,2.57,15.25,15.25,0,0,1-.51-1.63,29.72,29.72,0,0,1-.82-4.31,22,22,0,0,1,.35-6.27,25.37,25.37,0,0,1,2.61-7.71c.48-.91,1-1.87,1.63-2.81.29-.47.59-.95.92-1.45s.63-1,.93-1.44c1.61-2.39,3.46-4.83,5.29-7.12s3.7-4.53,5.23-6.42c3.16-3.81,5.53-6.45,5.53-6.45s.37,1.94.76,5a44.13,44.13,0,0,1,.37,5.28c.06,2,.06,4.09,0,6.27A40.51,40.51,0,0,1,518.27,231Z" transform="translate(-41.57 -67.68)"/><path class="cls-6" d="M467.59,248.53c-.39-.31-.74-.68-1.13-1s-.76-.74-1.13-1.13a31.07,31.07,0,0,1-2.07-2.39c-.66-.83-1.25-1.66-1.83-2.53s-1.14-1.76-1.66-2.55c-1-1.44-1.78-2.91-2.48-4.22-.35-.68-.67-1.33-.94-1.94s-.61-1.16-.89-1.68c-1.06-2.07-1.61-3.44-1.61-3.44s3.29.51,7.9,1.75c1.13.3,2.38.65,3.64,1.08s2.5.87,3.81,1.37a54.35,54.35,0,0,1,7.69,3.6,27.59,27.59,0,0,1,5.05,3.51,20.56,20.56,0,0,1,4.9,6.11,21.3,21.3,0,0,1,1.76,5.79,14.52,14.52,0,0,1,.08,4.23,15.16,15.16,0,0,1-.3,1.65,35.83,35.83,0,0,1-7.18-1.3A34.78,34.78,0,0,1,467.59,248.53Z" transform="translate(-41.57 -67.68)"/><path class="cls-6" d="M493.52,190.81a30.21,30.21,0,0,1-4.68,5.64,27.86,27.86,0,0,1-5.9,4.33,17,17,0,0,1-1-1.4,24.27,24.27,0,0,1-2-3.94,22.11,22.11,0,0,1-1.57-6.11,24.86,24.86,0,0,1-.13-3.81,23.6,23.6,0,0,1,.41-4.29,37.33,37.33,0,0,1,1.16-4.73c.22-.82.52-1.67.8-2.5s.55-1.64.85-2.48c1.14-3.33,2.51-6.65,3.77-9.67.65-1.48,1.26-2.92,1.83-4.18s1-2.4,1.44-3.35c.85-1.88,1.39-3,1.39-3s.61,1.13,1.52,3c.44,1,.9,2.13,1.44,3.42s1,2.8,1.52,4.33c.27.8.5,1.59.75,2.41s.49,1.66.67,2.55c.39,1.7.7,3.51.94,5.29a43.26,43.26,0,0,1,.41,5.27,33.4,33.4,0,0,1-.48,5A25.3,25.3,0,0,1,493.52,190.81Z" transform="translate(-41.57 -67.68)"/><path class="cls-6" d="M449.34,199.34a35,35,0,0,1-3.57-2.5c-1.11-.88-2.19-1.81-3.18-2.75s-2-1.8-2.89-2.68-1.7-1.73-2.4-2.47c-.35-.4-.67-.77-1-1.11s-.61-.62-.85-.92c-1.08-1.15-1.65-1.87-1.65-1.87s1.17-.13,3.14-.26a74.77,74.77,0,0,1,7.81-.14,77.88,77.88,0,0,1,9.93.92c.83.17,1.7.32,2.53.48l2.39.65a30.45,30.45,0,0,1,4.46,1.63,24.32,24.32,0,0,1,3.68,2.07,18.54,18.54,0,0,1,2.75,2.48,21.57,21.57,0,0,1,3.46,5,18.39,18.39,0,0,1,1.28,4.07,15.37,15.37,0,0,1,.18,1.63,36.29,36.29,0,0,1-7.3.72,38.17,38.17,0,0,1-7.14-.55,33.08,33.08,0,0,1-7.92-2.33A30.67,30.67,0,0,1,449.34,199.34Z" transform="translate(-41.57 -67.68)"/><path class="cls-6" d="M462.88,141.16a28,28,0,0,1-7.33,12.28,20.17,20.17,0,0,1-4.4-4.35,22.57,22.57,0,0,1-1.63-2.5,26.42,26.42,0,0,1-1.57-3A26,26,0,0,1,446,135.7a59.91,59.91,0,0,1,0-10c.28-3.59.59-7.09,1-10.3s.78-6,1.09-8.12.52-3.28.52-3.28a6.13,6.13,0,0,1,.63.69l1.63,1.88c1.36,1.65,3.2,4,5.05,6.68a69.56,69.56,0,0,1,5.1,9.25,35.67,35.67,0,0,1,2.76,10,21.08,21.08,0,0,1,.11,2.35c0,.76-.06,1.51-.13,2.25A29.58,29.58,0,0,1,462.88,141.16Z" transform="translate(-41.57 -67.68)"/><path class="cls-6" d="M422.69,160.74a18,18,0,0,1-2.06-.74l-1-.39c-.35-.16-.69-.27-1-.42a51.5,51.5,0,0,1-7.36-3.68c-2.24-1.19-4.09-2.35-5.38-3.2l-1.5-1.06-.57-.37.79-.29c.5-.19,1.26-.46,2.16-.76,1.85-.61,4.44-1.39,7.46-2.11,1.51-.35,3.12-.68,4.79-1,.81-.15,1.68-.29,2.53-.41s1.68-.2,2.53-.26a41.58,41.58,0,0,1,9.83.21,21.92,21.92,0,0,1,7.45,2.75A20.78,20.78,0,0,1,444,151a22.44,22.44,0,0,1,2,2.07,17.52,17.52,0,0,1,3.07,5.07,36.17,36.17,0,0,1-6.88,2.6,39.16,39.16,0,0,1-7.07,1.34,34.33,34.33,0,0,1-8.23-.26A31.08,31.08,0,0,1,422.69,160.74Z" transform="translate(-41.57 -67.68)"/><path class="cls-6" d="M414.79,111.53c-.54,1.14-.93,1.79-.93,1.79l-.4-.17c-.3-.12-.72-.27-1.22-.51a21.37,21.37,0,0,1-3.85-2.31,26.32,26.32,0,0,1-8.82-11.49,57.88,57.88,0,0,1-2.09-6.25c-.76-2.77-1.39-5.75-1.94-8.62s-1.08-5.55-1.48-8c-.8-4.83-1.24-8.3-1.24-8.3s1.74,1,4.31,2.85c1.27.87,2.75,2,4.34,3.2s3.18,2.73,4.78,4.29c1,.94,2,1.92,2.86,2.94l.7.77c.23.26.43.54.67.82.41.53.83,1.09,1.24,1.64a33.77,33.77,0,0,1,3.9,6.74,23.41,23.41,0,0,1,1.32,4.43,27.52,27.52,0,0,1,.42,4.2,26.78,26.78,0,0,1-.87,7.1A29.84,29.84,0,0,1,414.79,111.53Z" transform="translate(-41.57 -67.68)"/><path class="cls-6" d="M376.1,128.17c-1.76-.35-3.38-.76-4.88-1.14s-2.93-.72-4.05-1c-2.32-.68-3.72-1.24-3.72-1.24s2.59-2,6.6-4.4c2-1.2,4.35-2.52,6.9-3.74a57.83,57.83,0,0,1,7.92-3,32.71,32.71,0,0,1,6.1-1.31,20.68,20.68,0,0,1,13.65,3.23,22.52,22.52,0,0,1,3.33,2.78c.37.37.63.7.81.91l.26.37s-.54.53-1.54,1.33a38.65,38.65,0,0,1-4.3,3,41.11,41.11,0,0,1-6.44,3.18,30.21,30.21,0,0,1-3.81,1.19,41.75,41.75,0,0,1-4.14.76C384.55,129.5,380.17,128.82,376.1,128.17Z" transform="translate(-41.57 -67.68)"/><path class="cls-6" d="M313.66,468.86c1.15-.15,2.57-.32,4.18-.5.8-.13,1.67-.19,2.59-.35l2.81-.5c2-.34,4.13-.69,6.38-1.09s4.59-1,7-1.54c1.24-.29,2.48-.52,3.72-.87l3.75-1c2.54-.72,5.14-1.33,7.62-2.2A206.25,206.25,0,0,0,379,450.12c1.77-.87,3.42-1.68,4.88-2.38q1-.56,2-1c.61-.31,1.17-.65,1.67-.91l3.2-1.77s1.16-.63,3.18-1.76,4.79-2.94,8.16-5a201.9,201.9,0,0,0,43.53-37.73c.67-.72,1.24-1.46,1.81-2.16s1.1-1.34,1.61-1.94l2.61-3.2c.72-.87,1.22-1.63,1.59-2.11a8,8,0,0,1,.57-.74l2.11-2.89c.67-.92,1.56-2,2.43-3.33s1.88-2.81,2.94-4.42c.55-.81,1.12-1.66,1.7-2.55s1.11-1.81,1.68-2.77c1.13-1.93,2.37-3.94,3.61-6s2.31-4.37,3.51-6.6c.3-.58.61-1.13.91-1.71s.51-1.16.81-1.73c.54-1.19,1.09-2.35,1.65-3.54a184.6,184.6,0,0,0,10-26.57c.26-.93.54-1.82.78-2.65s.5-1.64.65-2.4c.39-1.54.72-2.87,1-4,.54-2.18.81-3.44.81-3.44s.1-.31.22-.89.3-1.48.5-2.59.47-2.42.74-4,.69-3.3.87-5.22.54-4,.83-6.16c.08-.55.15-1.11.23-1.66s.09-1.13.15-1.72c.07-1.17.16-2.33.27-3.55.5-4.79.5-9.93.65-15.08-.15-5.15-.15-10.3-.65-15.1q-.17-1.79-.27-3.54c-.06-.57-.1-1.14-.15-1.72s-.15-1.11-.23-1.66c-.29-2.18-.55-4.27-.83-6.18s-.59-3.64-.87-5.2-.5-2.88-.74-4-.35-2-.5-2.55-.22-.93-.22-.93-.27-1.24-.81-3.42c-.24-1.11-.57-2.44-1-4-.15-.75-.39-1.57-.65-2.42s-.52-1.72-.78-2.66a186,186,0,0,0-10-26.58c-.56-1.15-1.11-2.35-1.65-3.49-.3-.6-.55-1.17-.81-1.76l-.91-1.7c-1.2-2.26-2.37-4.48-3.51-6.61s-2.48-4.1-3.61-6c-.57-.95-1.11-1.91-1.68-2.8s-1.15-1.7-1.7-2.51c-1.06-1.63-2.07-3.13-2.94-4.44s-1.76-2.41-2.43-3.31l-2.11-2.89s-.22-.26-.57-.76-.87-1.23-1.59-2.1-1.61-2-2.61-3.2c-.51-.61-1-1.26-1.61-2s-1.14-1.43-1.81-2.15a201.9,201.9,0,0,0-43.53-37.73c-3.37-2.07-6.16-3.84-8.16-5l-3.18-1.76-3.2-1.77-1.67-.91c-.64-.31-1.31-.64-2-1l-1.54-.74h-.13a39.43,39.43,0,0,1-5.25.06,34.7,34.7,0,0,1-14.83-3.79,32.12,32.12,0,0,1-7.05-5c-1-1-2.09-1.94-3.07-2.9s-1.88-1.94-2.68-2.85c-1.55-1.88-3.05-3.51-4-4.73s-1.48-2-1.48-2,1.19-.06,3.15-.08,4.68,0,7.8.3c.8.05,1.59.13,2.41.22s1.61.21,2.42.35c1.65.24,3.31.58,5,1a37.21,37.21,0,0,1,9.24,3.25A22.4,22.4,0,0,1,380,88.15a19,19,0,0,1,3.05,5.29,16.84,16.84,0,0,1,1.09,4.09c0,.22.06.39.08.57l.53.28c.76.37,1.44.7,2.06,1s1.22.64,1.7.94l3.23,1.77s1.17.63,3.22,1.78,4.85,3,8.25,5.07a215.24,215.24,0,0,1,23.4,17.53,221.81,221.81,0,0,1,20.56,20.57c.69.73,1.26,1.49,1.83,2.16s1.09,1.37,1.63,2c1,1.24,1.91,2.33,2.63,3.21s1.23,1.65,1.61,2.13.57.76.57.76.79,1.05,2.14,2.9c.67.95,1.56,2.06,2.46,3.37s1.87,2.83,3,4.48c.56.83,1.11,1.68,1.7,2.55s1.11,1.85,1.72,2.81c1.17,1.92,2.37,4,3.61,6.1s2.37,4.38,3.57,6.68c.31.57.61,1.14.93,1.72s.55,1.16.81,1.75c.54,1.19,1.13,2.37,1.66,3.56a182.4,182.4,0,0,1,10.1,26.83c.26.94.54,1.83.78,2.7s.52,1.65.68,2.42c.37,1.56.7,2.91,1,4l.82,3.46a7.84,7.84,0,0,1,.22.9c.15.61.31,1.5.5,2.61s.48,2.48.76,4,.68,3.31.89,5.25.51,4,.81,6.24c0,.55.15,1.12.22,1.68s.09,1.16.15,1.74c.09,1.16.16,2.35.29,3.59.5,4.84.5,10,.67,15.23-.17,5.2-.17,10.4-.67,15.24-.13,1.23-.2,2.41-.29,3.57-.06.6-.08,1.17-.15,1.74s-.17,1.13-.22,1.69c-.3,2.2-.56,4.3-.81,6.23s-.63,3.68-.89,5.25-.56,2.9-.76,4-.35,2-.5,2.61a7.25,7.25,0,0,1-.22.89l-.82,3.47c-.26,1.13-.59,2.48-1,4-.16.78-.42,1.59-.68,2.46s-.52,1.74-.78,2.7A183.17,183.17,0,0,1,477,354.64c-.53,1.2-1.12,2.38-1.66,3.55-.26.59-.56,1.18-.81,1.77s-.62,1.15-.93,1.72c-1.2,2.26-2.39,4.52-3.57,6.66s-2.44,4.16-3.61,6.1c-.61.95-1.11,1.93-1.72,2.82s-1.14,1.73-1.7,2.55c-1.09,1.64-2.09,3.14-3,4.47s-1.79,2.44-2.46,3.37c-1.35,1.85-2.14,2.9-2.14,2.9s-.2.26-.57.78-.86,1.22-1.61,2.11-1.63,2-2.63,3.23c-.54.61-1,1.28-1.63,2s-1.14,1.45-1.83,2.17a205.7,205.7,0,0,1-44,38.11C399.83,441,397,442.82,395,444l-3.22,1.76-3.23,1.79c-.48.28-1.06.59-1.7.93s-1.3.66-2.06,1c-1.44.73-3.1,1.54-4.92,2.43a207.83,207.83,0,0,1-27.46,10.76c-2.53.89-5.14,1.5-7.71,2.22l-3.79,1c-1.26.35-2.54.59-3.74.88L330,468.38c-2.29.38-4.46.75-6.44,1.11-1,.16-1.94.35-2.86.49s-1.78.23-2.61.36c-1.63.18-3,.37-4.2.5l-3.68.46-.2-2S311.35,469.13,313.66,468.86Z" transform="translate(-41.57 -67.68)"/><path class="cls-6" d="M240.65,467.05h0c16.59,5.77,36.8,31.42,37.73,36.23l-9-33.27Z" transform="translate(-41.57 -67.68)"/><path class="cls-6" d="M326.91,467.05c-16.6,5.78-36.81,31.43-37.74,36.24l9-33.27" transform="translate(-41.57 -67.68)"/></svg>